<svg xmlns="http://www.w3.org/2000/svg" xmlns:xlink="http://www.w3.org/1999/xlink" viewBox="0,0,256,256" width="50px" height="50px" fill-rule="nonzero"><g fill="#ffffff" fill-rule="nonzero" stroke="none" stroke-width="1" stroke-linecap="butt" stroke-linejoin="miter" stroke-miterlimit="10" stroke-dasharray="" stroke-dashoffset="0" font-family="none" font-weight="none" font-size="none" text-anchor="none" style="mix-blend-mode: normal"><g transform="scale(5.12,5.12)"><path d="M48,2.69336c-4.622,0.138 -8.421,1.58161 -11,4.22461c-2.617,2.681 -4,6.6028 -4,11.3418c0,1.57 0.57331,4.38991 1.19531,6.62891c-1.73,1.478 -2.52042,4.02489 -1.98242,6.58789c0.555,2.644 2.36823,4.69573 4.61523,5.30273c0.457,1.382 1.18863,2.84372 2.14063,4.26172c1.217,1.816 3.27231,4.27259 6.19531,5.68359c0.024,0.02 0.04922,0.03674 0.07422,0.05273l0.01367,0.01563c0.475,0.568 1.40405,1.438 2.74805,1.75v-2.0957c-0.562,-0.248 -0.97784,-0.6545 -1.21484,-0.9375l-0.13477,-0.16016c-0.088,-0.105 -0.19731,-0.19291 -0.32031,-0.25391l-0.01758,-0.00781c-0.098,-0.069 -0.20227,-0.13336 -0.32227,-0.19336c-2.477,-1.189 -4.28037,-3.3568 -5.35937,-4.9668c-0.97,-1.446 -1.68169,-2.92248 -2.05469,-4.27148c-0.106,-0.383 -0.42927,-0.66666 -0.82227,-0.72266c-1.682,-0.238 -3.15598,-1.82919 -3.58398,-3.86719c-0.42,-2.006 0.28389,-4.03841 1.71289,-4.94141c0.379,-0.24 0.55183,-0.70186 0.42383,-1.13086c-0.633,-2.126 -1.30664,-5.20937 -1.30664,-6.73437c0,-4.207 1.18664,-7.64627 3.43164,-9.94727c2.198,-2.252 5.50236,-3.48714 9.56836,-3.61914zM48,16.66797c-1.875,0 -4.227,0.016 -6.25,0.75c-1.012,0.367 -1.95725,0.9335 -2.65625,1.8125c-0.699,0.879 -1.09375,2.0465 -1.09375,3.4375c-0.004,0.359 0.18409,0.69491 0.49609,0.87891c0.313,0.18 0.69481,0.18 1.00781,0c0.313,-0.184 0.50009,-0.51991 0.49609,-0.87891c0,-1.027 0.25025,-1.67745 0.65625,-2.18945c0.406,-0.512 1.00825,-0.9055 1.78125,-1.1875c1.547,-0.558 3.7185,-0.62305 5.5625,-0.62305zM29.41992,18.75c-0.77344,0.0142 -1.51961,0.34388 -2.03711,0.89063c-0.313,-0.261 -0.68384,-0.4545 -1.08984,-0.5625c-0.241,-0.065 -0.48928,-0.09766 -0.73828,-0.09766c-1.289,0 -2.42286,0.87023 -2.75586,2.11523l-0.03711,0.14258h-0.00195l-0.06055,0.21094c-0.238,-0.152 -0.50206,-0.2687 -0.78906,-0.3457c-1.497,-0.402 -3.10009,0.53058 -3.49609,2.01758l-4.26562,15.91797c-1.142,4.261 1.3972,8.65683 5.6582,9.79883l2.78711,0.74609c0.501,0.135 1.0182,0.20313 1.5332,0.20313c1.434,0 2.81234,-0.5217 3.90234,-1.4707c0.011,-0.007 0.02225,-0.01253 0.03125,-0.01953l8.875,-6.68945l-0.08789,-0.13477c-0.407,-0.6 -0.73381,-1.0885 -1.00781,-1.5625c-0.019,0.017 -0.03078,0.04164 -0.05078,0.05664l-8.83594,6.6582c-0.061,0.035 -0.11692,0.077 -0.16992,0.125c-0.991,0.9 -2.38188,1.24834 -3.67187,0.90234l-2.78711,-0.74805c-3.195,-0.856 -5.10014,-4.15166 -4.24414,-7.34766l4.26758,-15.91797c0.1,-0.373 0.43727,-0.63281 0.82227,-0.63281c0.074,0 0.14866,0.00834 0.22266,0.02734c0.453,0.122 0.72252,0.58897 0.60352,1.04297l-2.07812,7.76172l1.93164,0.51758l0.79883,-2.98242l0.00195,-0.00195l2.07813,-7.75781c0.119,-0.444 0.58792,-0.72552 1.04492,-0.60352c0.221,0.059 0.40453,0.19948 0.51953,0.39648c0.114,0.198 0.14594,0.42744 0.08594,0.64844l-1.04883,3.9082l-1.51172,5.64063l1.93359,0.51758l0.47852,-1.78906v-0.00195l1.68945,-6.30273l0.67188,-2.50781l0.03906,-0.14258c0.119,-0.445 0.59392,-0.72152 1.04492,-0.60352c0.454,0.122 0.72452,0.59092 0.60352,1.04492l-2.39844,8.95313l-0.64062,2.38672l1.93359,0.51953l0.88867,-3.31836c-0.002,-0.043 -0.00777,-0.08395 -0.00977,-0.12695c-0.059,-1.556 0.33166,-3.36777 0.97266,-4.50977c0.115,-0.205 0.28652,-0.46528 0.47852,-0.73828l0.06836,-0.25977c0.057,-0.212 0.19895,-0.38314 0.37695,-0.49414c-0.38,-1.368 -0.79216,-3.19119 -0.91016,-4.99219c-0.254,-0.171 -0.53275,-0.31153 -0.84375,-0.39453c-0.256,-0.069 -0.51758,-0.09848 -0.77539,-0.09375zM6.08203,19.00195c-0.4634,0.00711 -0.8612,0.33166 -0.96119,0.7842c-0.09999,0.45253 0.12402,0.91448 0.54127,1.11619c3.75505,1.89363 6.33789,5.7668 6.33789,10.26563c0,4.53396 -2.62076,8.42754 -6.42383,10.30469c-0.49565,0.24432 -0.6994,0.84419 -0.45508,1.33984c0.24432,0.49565 0.84419,0.6994 1.33984,0.45508c4.46294,-2.20285 7.53906,-6.79357 7.53906,-12.09961c0,-5.26518 -3.03055,-9.83036 -7.4375,-12.05273c-0.14817,-0.07731 -0.31336,-0.11626 -0.48047,-0.11328zM4.43359,22.63672c-0.46143,0.00183 -0.86171,0.31912 -0.96882,0.76795c-0.10711,0.44883 0.10676,0.91268 0.51765,1.12267c2.38657,1.25461 4.01758,3.74941 4.01758,6.64063c0,2.913 -1.65721,5.41894 -4.07422,6.66406c-0.32744,0.15801 -0.54334,0.48127 -0.56386,0.84426c-0.02052,0.36299 0.15756,0.70853 0.4651,0.90244c0.30754,0.19391 0.69609,0.20565 1.01478,0.03065c3.06099,-1.57688 5.1582,-4.76841 5.1582,-8.44141c0,-3.64478 -2.06251,-6.82076 -5.08594,-8.41016c-0.14746,-0.08003 -0.31269,-0.12167 -0.48047,-0.12109zM2.70508,26.29688c-0.44282,0.02411 -0.81688,0.33696 -0.9189,0.76854c-0.10203,0.43158 0.09235,0.87881 0.4775,1.09865c1.03942,0.61207 1.73633,1.71429 1.73633,3.00391c0,1.29945 -0.70868,2.40651 -1.76172,3.01563c-0.31857,0.17424 -0.51767,0.50746 -0.52017,0.87056c-0.0025,0.3631 0.19201,0.69902 0.50815,0.87763c0.31614,0.1786 0.70426,0.17182 1.01397,-0.01772c1.63696,-0.94688 2.75977,-2.71355 2.75977,-4.74609c0,-2.01638 -1.10412,-3.77463 -2.7207,-4.72656c-0.17243,-0.10503 -0.37261,-0.15542 -0.57422,-0.14453zM43.5,27.66797c-0.82843,0 -1.5,0.67157 -1.5,1.5c0,0.82843 0.67157,1.5 1.5,1.5c0.82843,0 1.5,-0.67157 1.5,-1.5c0,-0.82843 -0.67157,-1.5 -1.5,-1.5zM30.88867,33.86523l-1.56055,5.82031c-0.11,0.411 0.05325,0.84889 0.40625,1.08789c0.354,0.238 0.82011,0.22575 1.16211,-0.03125l3.49414,-2.63281c0.072,-0.055 0.15823,-0.07733 0.24023,-0.11133c-0.558,-0.326 -1.14408,-0.75311 -1.70508,-1.28711l-0.91406,0.6875l0.34375,-1.28125c-0.559,-0.633 -1.0698,-1.37995 -1.4668,-2.25195z"></path></g></g></svg>