<svg xmlns="http://www.w3.org/2000/svg"  viewBox="0 0 50 50" width="50px" height="50px"><path d="M 0.90625 -0.03125 C 0.863281 -0.0234375 0.820313 -0.0117188 0.78125 0 C 0.40625 0.0664063 0.105469 0.339844 0 0.703125 C -0.105469 1.070313 0.00390625 1.460938 0.28125 1.71875 L 48.28125 49.71875 C 48.679688 50.117188 49.320313 50.117188 49.71875 49.71875 C 50.117188 49.320313 50.117188 48.679688 49.71875 48.28125 L 36 34.5625 C 39.117188 31.652344 41 27.519531 41 23 L 41 18 C 41 17.398438 40.601563 17 40 17 C 39.398438 17 39 17.398438 39 18 L 39 23 C 39 27.007813 37.289063 30.546875 34.5625 33.125 L 32.53125 31.09375 C 34.710938 29.144531 36.09375 26.339844 36.09375 23.1875 L 36.09375 21 L 28.5 21 C 27.945313 21 27.5 20.550781 27.5 20 C 27.5 19.449219 27.945313 19 28.5 19 L 36.09375 19 L 36.09375 17 L 28.5 17 C 27.945313 17 27.5 16.550781 27.5 16 C 27.5 15.449219 27.945313 15 28.5 15 L 36.09375 15 L 36.09375 13 L 28.5 13 C 27.945313 13 27.5 12.550781 27.5 12 C 27.5 11.449219 27.945313 11 28.5 11 L 36.09375 11 L 36.09375 10.6875 C 35.992188 4.789063 31.101563 0 25 0 C 18.898438 0 14 4.789063 14 10.6875 L 14 11 L 21.5 11 C 22.050781 11 22.5 11.449219 22.5 12 C 22.5 12.550781 22.050781 13 21.5 13 L 14.4375 13 L 1.71875 0.28125 C 1.511719 0.0585938 1.210938 -0.0546875 0.90625 -0.03125 Z M 16.4375 15 L 21.5 15 C 22.050781 15 22.5 15.449219 22.5 16 C 22.5 16.550781 22.050781 17 21.5 17 L 18.4375 17 Z M 10 17 C 9.398438 17 9 17.398438 9 18 L 9 23 C 9 30.777344 14.621094 37.304688 22 38.71875 L 22 43 L 28 43 L 28 38.71875 C 29.738281 38.375 31.359375 37.742188 32.90625 36.90625 L 31.40625 35.40625 C 29.507813 36.40625 27.300781 37 25 37 C 17.300781 37 11 30.699219 11 23 L 11 18 C 11 17.398438 10.601563 17 10 17 Z M 14 18.09375 L 14 19 L 14.90625 19 Z M 20.4375 19 L 21.5 19 C 22.101563 19 22.5 19.398438 22.5 20 C 22.5 20.316406 22.382813 20.574219 22.1875 20.75 Z M 14 21 L 14 23.3125 C 14 29.210938 18.898438 34 25 34 C 26.5 34 27.894531 33.6875 29.09375 33.1875 L 16.90625 21 Z M 15.5 45 C 13.539063 45 12 46.535156 12 48.5 L 12 50 L 37.90625 50 L 37.90625 48.5 C 37.90625 46.535156 36.371094 45 34.40625 45 Z"/></svg>