<svg xmlns="http://www.w3.org/2000/svg"  viewBox="0 0 50 50" width="50px" height="50px"><path d="M 44.134766 2.4042969 A 1.0001 1.0001 0 0 0 43.404297 4.1074219 C 45.637242 6.4306909 47 9.5007331 47 12.890625 C 47 16.331069 45.598928 19.440183 43.306641 21.773438 A 1.0001 1.0001 0 1 0 44.732422 23.175781 C 47.364134 20.497036 49 16.876181 49 12.890625 C 49 8.9625169 47.408758 5.3893874 44.845703 2.7226562 A 1.0001 1.0001 0 0 0 44.134766 2.4042969 z M 5.9511719 2.40625 A 1.0001 1.0001 0 0 0 5.265625 2.7148438 C 2.6351025 5.3934659 1 9.0142646 1 13 C 1 16.928108 2.5912424 20.501238 5.1542969 23.167969 A 1.0001 1.0001 0 1 0 6.5957031 21.78125 C 4.3627576 19.457981 3 16.389892 3 13 C 3 9.5597354 4.4018819 6.4486121 6.6933594 4.1152344 A 1.0001 1.0001 0 0 0 5.9511719 2.40625 z M 25 3 C 19.486 3 15 7.486 15 13 L 15 13.005859 L 21.001953 13.015625 C 21.553953 13.016625 22.001 13.464578 22 14.017578 C 21.999 14.568578 21.551 15.015625 21 15.015625 L 20.998047 15.015625 L 15 15.005859 L 15 18.019531 L 21.001953 18.03125 C 21.553953 18.03225 22.001 18.481203 22 19.033203 C 21.999 19.584203 21.551 20.03125 21 20.03125 L 20.998047 20.03125 L 15 20.019531 L 15 23.005859 L 21.001953 23.015625 C 21.553953 23.016625 22.001 23.464578 22 24.017578 C 21.999 24.568578 21.551 25.015625 21 25.015625 L 20.998047 25.015625 L 15 25.005859 C 15.003 30.516859 19.488 35 25 35 C 30.511 35 34.995 30.517813 35 25.007812 L 28.998047 25 C 28.445047 25 27.999 24.550047 28 23.998047 C 28.001 23.446047 28.448 23 29 23 L 29.001953 23 L 35 23.007812 L 35 20.023438 L 28.998047 20.015625 C 28.445047 20.014625 27.999 19.565672 28 19.013672 C 28.001 18.461672 28.448 18.015625 29 18.015625 L 29.001953 18.015625 L 35 18.023438 L 35 15.007812 L 28.998047 15 C 28.445047 15 27.999 14.550047 28 13.998047 C 28.001 13.446047 28.448 13 29 13 L 29.001953 13 L 35 13.007812 L 35 13 C 35 7.486 30.514 3 25 3 z M 11 5.6367188 A 1.0001 1.0001 0 0 0 10.306641 5.9257812 C 8.4310399 7.7293709 7.2597656 10.238548 7.2597656 13 C 7.2597656 15.70245 8.3852324 18.159134 10.189453 19.951172 A 1.0001 1.0001 0 1 0 11.599609 18.533203 C 10.14583 17.089241 9.2597656 15.14955 9.2597656 13 C 9.2597656 10.801452 10.18296 8.8195978 11.693359 7.3671875 A 1.0001 1.0001 0 0 0 11 5.6367188 z M 39.091797 5.6367188 A 1.0001 1.0001 0 0 0 38.400391 7.3574219 C 39.85417 8.8013842 40.740234 10.739121 40.740234 12.888672 C 40.740234 15.08722 39.81704 17.069074 38.306641 18.521484 A 1.0001 1.0001 0 1 0 39.693359 19.962891 C 41.56896 18.159301 42.740234 15.650123 42.740234 12.888672 C 42.740234 10.186222 41.614768 7.7295377 39.810547 5.9375 A 1.0001 1.0001 0 0 0 39.091797 5.6367188 z M 11.984375 23.837891 A 1.0001 1.0001 0 0 0 11 24.851562 C 11 31.607231 15.714161 37.271128 22 38.664062 L 22 44 L 18 44 C 15.794 44 14 45.794 14 48 L 14 49 L 36 49 L 36 48 C 36 45.794 34.206 44 32 44 L 28 44 L 28 38.664062 C 34.285839 37.271128 39 31.607231 39 24.851562 A 1.0001 1.0001 0 1 0 37 24.851562 C 37 31.578201 31.633389 37 25 37 C 18.366611 37 13 31.578201 13 24.851562 A 1.0001 1.0001 0 0 0 11.984375 23.837891 z"/></svg>